<svg xmlns="http://www.w3.org/2000/svg" viewBox="0 0 100 100" aria-hidden="true">
    <!-- Outer ring -->
    <circle cx="50" cy="50" r="47" fill="#1a3a2a" stroke="rgba(255,255,255,0.15)" stroke-width="1.5"/>
    <!-- Globe latitude lines -->
    <ellipse cx="50" cy="50" rx="47" ry="22" fill="none" stroke="rgba(255,255,255,0.12)" stroke-width="1"/>
    <ellipse cx="50" cy="50" rx="47" ry="40" fill="none" stroke="rgba(255,255,255,0.08)" stroke-width="1"/>
    <!-- Globe longitude lines -->
    <ellipse cx="50" cy="50" rx="22" ry="47" fill="none" stroke="rgba(255,255,255,0.12)" stroke-width="1"/>
    <!-- Equator -->
    <line x1="3" y1="50" x2="97" y2="50" stroke="rgba(255,255,255,0.15)" stroke-width="1"/>
    <!-- Africa shape: West bulge top, Horn of Africa east, Cape point south -->
    <path d="M46 28 Q52 26 55 32 Q60 36 58 44 Q62 50 60 57 Q58 65 54 70 Q50 74 47 70 Q42 64 41 57 Q38 50 40 44 Q39 36 43 30 Z"
          fill="rgba(255,255,255,0.22)" stroke="rgba(255,255,255,0.1)" stroke-width="0.5"/>
    <!-- Black Star — in honour of Marcus Garvey -->
    <polygon points="50,6 52.2,12.9 59.5,12.9 53.7,17.1 55.9,24 50,19.8 44.1,24 46.3,17.1 40.5,12.9 47.8,12.9"
             fill="#000000" stroke="rgba(255,255,255,0.4)" stroke-width="0.6"/>
    <!-- BWN monogram -->
    <text x="50" y="58" text-anchor="middle"
          font-family="Georgia, 'Times New Roman', serif"
          font-size="17" font-weight="bold" fill="white" opacity="0.9">BWN</text>
</svg>
